<?xml version="1.0" encoding="utf-8"?>
<!-- Generator: Adobe Illustrator 23.0.2, SVG Export Plug-In . SVG Version: 6.00 Build 0)  -->
<svg version="1.1" id="Layer_1" xmlns="http://www.w3.org/2000/svg" xmlns:xlink="http://www.w3.org/1999/xlink" x="0px" y="0px"
	 viewBox="0 0 512 512" style="enable-background:new 0 0 512 512;" xml:space="preserve">
<style type="text/css">
	.st0{fill:#1ed760;}
</style>
<path class="st0" d="M256,0C114.6,0,0,114.6,0,256s114.6,256,256,256s256-114.6,256-256C511.8,114.7,397.3,0.2,256,0z M373.5,206.8
	L250,328.6c-8.2,8.3-19.1,12.4-30,12.4s-21.9-4.2-30.2-12.5L130.4,271c-8.5-8.2-8.7-21.7-0.5-30.2c8.2-8.5,21.7-8.7,30.2-0.5
	l59.6,57.7l123.9-121.6c8.4-8.3,21.9-8.2,30.2,0.2v0C382,185,381.9,198.6,373.5,206.8z"/>
</svg>
