<?xml version="1.0" encoding="utf-8"?>
<!-- Generator: Adobe Illustrator 23.0.2, SVG Export Plug-In . SVG Version: 6.00 Build 0)  -->
<svg version="1.1" id="Layer_1" xmlns="http://www.w3.org/2000/svg" xmlns:xlink="http://www.w3.org/1999/xlink" x="0px" y="0px"
	 viewBox="0 0 24 24" style="enable-background:new 0 0 24 24;" xml:space="preserve">
<style type="text/css">
	.st0{fill:#ffffff;}
</style>
<path class="st0" d="M0.1,11.6L0.1,11.6L0.1,11.6z M23.1,10.8H2c0.1-0.4,0.3-0.7,0.6-1l6.7-6.9c0.3-0.3,0.3-0.9,0-1.2
	C9,1.4,8.5,1.4,8.1,1.7L1.4,8.6c-0.8,0.8-1.3,1.9-1.3,3s0.4,2.2,1.2,3l6.7,7c0.2,0.2,0.4,0.3,0.6,0.3c0.2,0,0.4-0.1,0.6-0.2
	c0.3-0.3,0.4-0.9,0-1.2l-6.7-7c-0.3-0.3-0.5-0.6-0.6-1H23c0.5,0,0.9-0.4,0.9-0.9S23.6,10.8,23.1,10.8L23.1,10.8z"/>
</svg>
