<svg id="Layer_1" data-name="Layer 1" xmlns="http://www.w3.org/2000/svg" viewBox="0 0 512 512" style="fill: #a9a9a9"><title>descargar</title><path d="M256,0C114.62,0,0,114.62,0,256S114.62,512,256,512,512,397.38,512,256,397.32.15,256,0Zm0,469.33C138.18,469.33,42.67,373.82,42.67,256S138.18,42.67,256,42.67,469.33,138.18,469.33,256,373.77,469.2,256,469.33Z"/><path d="M378.81,270.15a21.34,21.34,0,0,0-30.17-.13l-.12.13-70.19,70.18V127a21.33,21.33,0,1,0-42.66,0V340.33l-70.19-70.18a21.34,21.34,0,0,0-30.17-.13l-.12.13a21.34,21.34,0,0,0,0,30.08l91.73,91.52A42.63,42.63,0,0,0,257,404.33h0a42.67,42.67,0,0,0,29.87-12.58l91.73-91.52A21.33,21.33,0,0,0,378.81,270.15Z"/></svg>